Genre:Documentary | War
Language:English  http://www.imdb.com/title/tt1559549/
Source:720p.BluRay.x264-BRMP


Format : Matroska
File size : 1.77 GiB
Duration : 1h 33mn
Overall bit rate : 2 699 Kbps


Video
Codec ID : V_MPEG4/ISO/AVC
Duration : 1h 33mn
Bit rate : 2 300 Kbps
Width : 1 280 pixels
Height : 720 pixels
Display aspect ratio : 16:9
Frame rate mode : Variable
Frame rate : 29.970 fps
Color space : YUV
Chroma subsampling : 4:2:0
Bit depth : 8 bits
Scan type : Progressive
Bits/(Pixel*Frame) : 0.083
Stream size : 1.48 GiB (84%)
Writing library : x264

Audio
ID : 2
Format : AC-3
Format/Info : Audio Coding 3
Mode extension : CM (complete main)
Codec ID : A_AC3
Duration : 1h 33mn
Bit rate mode : Constant
Bit rate : 384 Kbps
Channel(s) : 6 channels
Channel positions : Front: L C R, Side: L R, LFE
Sampling rate : 48.0 KHz
Bit depth : 16 bits
Video delay : -1mn 5s
Stream size : 257 MiB (14%)
Language : English


Plot:
A year with one platoon in the deadliest valley in Afghanistan
 
http://rapidhdd.com/images/567236vlcsnap-2010-12-11-14h53m48s194.png 
http://www.rapidhdd.com/images/858128vlcsnap-2010-12-11-14h54m09s156.png 
http://www.rapidhdd.com/images/668106vlcsnap-2010-12-11-14h54m44s244.png 
http://www.rapidhdd.com/images/722882vlcsnap-2010-12-11-14h54m23s43.png 
http://www.rapidhdd.com/images/805893vlcsnap-2010-12-11-14h54m31s123.png